<?xml version="1.0" encoding="UTF-8"?>
<svg xmlns="http://www.w3.org/2000/svg" xmlns:xlink="http://www.w3.org/1999/xlink" width="40pt" height="40pt" viewBox="0 0 40 40" version="1.1">
<g id="surface1">
<path style=" stroke:none;fill-rule:nonzero;fill:rgb(35.686275%,74.117647%,74.901961%);fill-opacity:1;" d="M 34.640625 20.390625 C 34.640625 28.253906 28.265625 34.628906 20.398438 34.628906 C 12.535156 34.628906 6.160156 28.253906 6.160156 20.390625 C 6.160156 12.523438 12.535156 6.148438 20.398438 6.148438 C 28.265625 6.148438 34.640625 12.523438 34.640625 20.390625 "/>
<path style=" stroke:none;fill-rule:nonzero;fill:rgb(100%,100%,100%);fill-opacity:1;" d="M 20.640625 15.050781 L 24.324219 24.148438 L 18.757812 19.761719 Z M 27.1875 26.242188 L 21.519531 12.601562 C 21.382812 12.234375 21.03125 11.992188 20.640625 12 C 20.242188 11.992188 19.882812 12.230469 19.738281 12.601562 L 13.515625 27.5625 L 15.644531 27.5625 L 18.105469 21.394531 L 25.457031 27.332031 C 25.753906 27.570312 25.964844 27.679688 26.242188 27.679688 C 26.515625 27.683594 26.78125 27.582031 26.976562 27.390625 C 27.171875 27.199219 27.285156 26.9375 27.28125 26.660156 C 27.273438 26.519531 27.242188 26.375 27.1875 26.242188 "/>
</g>
</svg>
