<?xml version="1.0" encoding="UTF-8"?>
<svg xmlns="http://www.w3.org/2000/svg" xmlns:xlink="http://www.w3.org/1999/xlink" width="16pt" height="16pt" viewBox="0 0 16 16" version="1.1">
<g id="surface1">
<path style=" stroke:none;fill-rule:nonzero;fill:rgb(100%,34.509804%,31.372549%);fill-opacity:1;" d="M 13.855469 8.15625 C 13.855469 11.300781 11.304688 13.851562 8.160156 13.851562 C 5.015625 13.851562 2.464844 11.300781 2.464844 8.15625 C 2.464844 5.011719 5.015625 2.460938 8.160156 2.460938 C 11.304688 2.460938 13.855469 5.011719 13.855469 8.15625 "/>
<path style=" stroke:none;fill-rule:nonzero;fill:rgb(100%,100%,100%);fill-opacity:1;" d="M 8.257812 6.019531 L 9.730469 9.660156 L 7.503906 7.90625 Z M 10.875 10.496094 L 8.605469 5.039062 C 8.554688 4.894531 8.414062 4.796875 8.257812 4.800781 C 8.097656 4.796875 7.953125 4.894531 7.894531 5.039062 L 5.40625 11.027344 L 6.257812 11.027344 L 7.242188 8.558594 L 10.183594 10.933594 C 10.300781 11.027344 10.386719 11.070312 10.496094 11.070312 C 10.605469 11.074219 10.710938 11.03125 10.789062 10.957031 C 10.871094 10.878906 10.914062 10.773438 10.914062 10.664062 C 10.910156 10.605469 10.894531 10.550781 10.875 10.496094 "/>
</g>
</svg>
